<?xml version="1.0" standalone="no"?>
<!DOCTYPE svg PUBLIC "-//W3C//DTD SVG 1.1//EN" "http://www.w3.org/Graphics/SVG/1.1/DTD/svg11.dtd" >
<!--
2013-9-30: Created.
-->
<svg>
<metadata>
Created by iconfont
</metadata>
<defs>

<font id="iconfont" horiz-adv-x="1024" >
  <font-face
    font-family="iconfont"
    font-weight="500"
    font-stretch="normal"
    units-per-em="1024"
    ascent="896"
    descent="-128"
  />
    <missing-glyph />
    
    <glyph glyph-name="music-menu" unicode="&#58958;" d="M126.00149346 653.92534219l444.66083789 0c10.04031826 0 18.15609112 8.1339293 18.15609112 18.15609111 0 10.02216269-8.11577285 18.15609112-18.15609112 18.15609111L126.00149346 690.23752529c-10.04031826 0-18.15609112-8.1339293-18.15609112-18.15609111C107.84540234 662.05927148 115.97933076 653.92534219 126.00149346 653.92534219zM126.00149346 405.11426367l444.66083789 0c10.04031826 0 18.15609112 8.1339293 18.15609112 18.15609112 0 10.02216269-8.11577285 18.15609112-18.15609112 18.1560911L126.00149346 441.42644678c-10.04031826 0-18.15609112-8.1339293-18.15609112-18.15609112C107.84540234 413.23003652 115.97933076 405.11426367 126.00149346 405.11426367zM324.37494951 192.61536825999997L126.00149346 192.61536825999997c-10.04031826 0-18.15609112-8.1339293-18.15609112-18.15609111 0-10.02216269 8.11577285-18.15609112 18.15609112-18.15609111l198.37345605 0c10.04031826 0 18.15609112 8.1339293 18.15609111 18.15609111C342.53104151 184.48143896 334.41526865 192.61536825999997 324.37494951 192.61536825999997zM907.62123447 831.25588857C902.28334414 834.54214102 895.6563708 834.90526289 890.04613818 832.18184883L693.17963721 736.26321768c-6.26385146-3.05022305-10.20372364-9.38669941-10.20372364-16.32232617l0-635.04561446c-12.99976172-37.34708028-61.56730635-76.47345791-122.0270915-98.04289395-41.75901035-14.90615156-83.86298701-19.97170049-118.66821416-14.28884384-30.50223398 4.9929249-51.63592412 18.10162354-58.0087125 35.96721767-6.37278838 17.86559414 1.70667246 41.39588847 22.15043173 64.56306182 23.33057783 26.41711289 59.17070214 49.16669589 100.92971251 64.05469102 30.35698506 10.83918691 61.24049648 16.52204356 89.54584365 16.52204355 1.12567763 0 2.25135528-0.01815644 3.3407209-0.01815645 9.91322578 0 18.01084307 7.95236836 18.15609111 17.8837506 0.14524893 10.02216269-7.86158789 18.26502802-17.88375058 18.42843251-33.57061348 0.54468281-69.84648458-5.95519805-105.34164346-18.60999345-47.441867-16.92147744-88.61988252-43.28412188-115.94480098-74.22210265-29.90308271-33.86111045-40.23389883-69.64676719-29.1223705-100.78446445 11.09337187-31.13769727 41.7771668-52.30769942 86.33221523-59.60644892 11.14784033-1.81560937 22.87667549-2.72341406 35.00494453-2.72341406 32.20890644 0 67.26831943 6.35463193 101.74673672 18.64630634 73.16904903 26.10845948 130.21548838 74.78494102 145.33951289 124.04241739 0.52652637 1.72482891 0.79886777 3.52228184 0.79886777 5.31973476L719.32440957 708.59333379l160.57247344 78.21644238L879.89688301 677.12882754l-109.35413965-62.63851553c-8.69676768-4.97476933-11.72883516-16.06814122-6.73591026-24.78306533 4.9929249-8.69676768 16.06814122-11.71067871 24.78306534-6.73591025l118.48665322 67.86746982c5.66470019 3.23178398 9.13251445 9.24145049 9.13251446 15.75948779L916.20906612 815.85952266C916.15459766 822.10521856 912.92281367 827.9333232500001 907.62123447 831.25588857z"  horiz-adv-x="1024" />

    
    <glyph glyph-name="loop" unicode="&#58962;" d="M559.08426343 203.19642847h-48.96763378V406.60044653c-15.06696435-11.30022289-33.90066942-20.71707619-54.61774561-26.36718723l-3.76674148-1.88337113v48.96763377h1.88337113c11.30022289 1.88337035 22.60044653 7.53348218 35.78403978 15.06696437s22.60044653 15.06696435 32.01729906 24.48381688l1.88337036 1.88337114h37.66741089v-265.55524587zM630.65234375 63.827009309999994H393.34765625C240.79464308 63.827009309999994 116.4921875 184.36272340000005 116.4921875 333.14899586S240.79464308 602.47098244 393.34765625 602.47098244h337.12332619c13.183594 0 24.48381689-11.30022289 24.48381688-24.48381688 0-13.183594-11.30022289-24.48381689-24.48381688-24.48381768H393.34765625c-124.30245558 0-226.00446462-97.93526756-226.00446462-220.35435201s101.70200904-220.35435278 227.88783497-220.35435279h235.42131715c126.18582593 0 227.88783497 99.81863869 227.88783497 220.35435279 0 13.183594 11.30022289 24.48381689 24.48381688 24.48381688 13.183594 0 24.48381689-11.30022289 24.4838169-24.48381688C907.5078125 184.36272340000005 783.20535692 63.827009309999994 630.65234375 63.827009309999994M738.00446462 566.6869419c-5.65011183 0-13.183594 1.88337035-16.95033548 5.65011182l-118.65234375 99.81863792c-11.30022289 9.41685253-13.183594 26.36718725-3.76674071 37.66741089 9.41685253 13.183594 26.36718725 13.183594 37.6674109 3.76674147L756.83816968 613.77120532c11.30022289-9.41685253 13.183594-26.36718725 3.7667407-37.6674109-7.53348218-5.65011183-15.06696435-9.41685253-22.60044577-9.41685253"  horiz-adv-x="1024" />

    
    <glyph glyph-name="rank" unicode="&#58974;" d="M883.18582917 406.78106719c89.99068623 0.50994756 199.08939463 8.45912461 278.76114757-5.99937891a132.94624043 132.94624043 0 0 1 24.23749129-30.31186289v-387.9198501H1307.38692399V-66H107.5111111v48.48998115h121.20245596V370.45482685c0 73.19242441-5.32444922 160.99333682 5.99937891 224.27178838a132.13632393 132.13632393 0 0 1 30.29686436 24.23749131h266.64240233c-0.47995049 61.70361328-3.50963701 135.88593575 5.99937891 187.90055156a132.58627734 132.58627734 0 0 1 30.29686436 24.25248985c93.81528983 0.50994756 207.4885251 9.11905575 290.87989365-6.07437071a132.85624922 132.85624922 0 0 1 24.23749132-30.29686435v-387.9198501z m-302.96864356-424.29108604h254.52365713V491.64228427c0 90.27565664 8.2941416 198.81942187-5.99937891 278.80614318l-18.17811825 5.9993789c-10.84387763 9.80898487-40.34582402 5.99937891-60.60872725 5.99937979-52.38957744 0-114.55814356 2.24976709-157.48370069-5.99937979l-5.99937891-18.17811826c-8.99906836-10.33393008-5.99937891-35.18635781-5.9993789-54.54935421v-721.29034599z m-296.96926289 581.93976973c-10.61890137-59.61882919-5.99937891-142.69523115-5.99937979-212.13804375v-369.74173184h254.52365713v587.93914776c-80.58665917 0.44995342-178.13656318 6.74930127-248.52427734-6.11936631z m599.93790645-206.07867158v-375.80110401h254.52365626v278.82114171c0 41.72568135 6.50932646 72.08253984-18.17811827 90.92059013v5.99937891H883.18582917z"  horiz-adv-x="1365" />

    
    <glyph glyph-name="comment21" unicode="&#59009;" d="M512 120.328125C481.203125 120.328125 451.4609375 123.9140625 422.87890625 130.00488281000003L298.7421875 55.385742189999974 300.40332031 177.703125C205.24414062 234.91992187000005 142.859375 329.52539062000005 142.859375 436.734375 142.859375 611.46972656 308.12890625 753.140625 512 753.140625 715.87109375 753.140625 881.140625 611.46972656 881.140625 436.734375 881.140625 261.97265625 715.87109375 120.328125 512 120.328125L512 120.328125ZM512 805.875C279.01953125 805.875 90.125 640.57910156 90.125 436.734375 90.125 320.21777344 151.95605469 216.46289062000005 248.328125 148.83105468999997L248.328125-37.875 433.13574219 74.26464843999997C458.71191406 70.04589843999997 485.02636719 67.59374998999999 512 67.59374998999999 744.98046875 67.59374998999999 933.875 232.86328125 933.875 436.734375 933.875 640.57910156 744.98046875 805.875 512 805.875L512 805.875ZM696.5703125 515.8359375L327.4296875 515.8359375C312.875 515.8359375 301.0625 504.0234375 301.0625 489.46875001 301.0625 474.88769531 312.875 463.1015625 327.4296875 463.1015625L696.5703125 463.1015625C711.125 463.1015625 722.9375 474.88769531 722.9375 489.46875001 722.9375 504.0234375 711.125 515.8359375 696.5703125 515.8359375L696.5703125 515.8359375ZM643.8359375 357.6328125L380.1640625 357.6328125C365.609375 357.6328125 353.796875 345.84667969 353.796875 331.265625 353.796875 316.68457031 365.609375 304.8984375 380.1640625 304.8984375L643.8359375 304.8984375C658.390625 304.8984375 670.203125 316.68457031 670.203125 331.265625 670.203125 345.84667969 658.390625 357.6328125 643.8359375 357.6328125L643.8359375 357.6328125Z"  horiz-adv-x="1024" />

    
    <glyph glyph-name="delete" unicode="&#58884;" d="M576.08 163.08000000000004V499.62c0 39.24 61.26 39.24 61.26 0v-336.48c0.06-39.24-61.26-39.24-61.26-0.06z m-183.78 0V499.62c0 39.24 61.26 39.24 61.26 0v-336.48c0-39.24-61.26-39.24-61.26-0.06z m520.86 489.48H759.98v61.2c0 50.7-41.22 91.74-91.02 91.74H361.64a91.8 91.8 0 0 1-91.92-91.74v-61.2H116.54c-39.24 0-39.24-61.14 0-61.14H913.1c39.3 0 39.3 61.14 0.06 61.14z m-582.12 61.2c0 16.26 14.34 30.6 30.6 30.6h307.32c16.26 0 29.7-12.48 29.7-30.6v-61.2H331.04v61.2zM729.32-51H300.38a91.8 91.8 0 0 0-91.86 91.74V499.62c0 18.18 14.34 30.6 30.6 30.6s30.66-12.42 30.66-30.6V40.799999999999955c0-16.26 14.4-30.6 30.6-30.6h428.94a31.5 31.5 0 0 1 30.66 30.6V498.66c0 40.14 61.26 40.14 61.26 0v-457.92A91.86 91.86 0 0 0 729.32-51z m0 0"  horiz-adv-x="1024" />

    
    <glyph glyph-name="share" unicode="&#59012;" d="M715.392 511.9616c-77.632 0-140.8 63.168-140.8 140.8s63.168 140.8 140.8 140.8 140.8-63.168 140.8-140.8-63.168-140.8-140.8-140.8z m0 256c-63.5264 0-115.2-51.6864-115.2-115.2s51.6736-115.2 115.2-115.2 115.2 51.6864 115.2 115.2-51.6736 115.2-115.2 115.2zM715.392-51.17439999999999c-77.632 0-140.8 63.168-140.8 140.8s63.168 140.8 140.8 140.8 140.8-63.168 140.8-140.8-63.168-140.8-140.8-140.8z m0 256c-63.5264 0-115.2-51.6736-115.2-115.2s51.6736-115.2 115.2-115.2 115.2 51.6736 115.2 115.2-51.6736 115.2-115.2 115.2zM220.928 231.37279999999998c-77.632 0-140.8 63.168-140.8 140.8s63.168 140.8 140.8 140.8 140.8-63.168 140.8-140.8-63.1552-140.8-140.8-140.8z m0 256c-63.5136 0-115.2-51.6864-115.2-115.2 0-63.5264 51.6864-115.2 115.2-115.2s115.2 51.6736 115.2 115.2-51.6736 115.2-115.2 115.2zM320.128 437.8496l266.6752 165.2736 13.4784-21.76-266.6624-165.2736zM325.696 286.976l13.4912 21.76 266.624-165.3248-13.4784-21.76z"  horiz-adv-x="1024" />

    
    <glyph glyph-name="download" unicode="&#58895;" d="M877.625 440.25c-15.55664063 0-28.125-12.56835938-28.125-28.125v-280.81054688c0-15.73242188-12.83203125-28.56445313-28.56445313-28.56445312h-617.87109375c-15.73242188 0-28.56445313 12.83203125-28.56445312 28.56445313V412.125c0 15.55664063-12.56835938 28.125-28.125 28.125s-28.125-12.56835938-28.125-28.125v-280.81054688c0-46.7578125 38.05664063-84.81445313 84.81445312-84.81445312h617.87109375c46.7578125 0 84.81445313 38.05664063 84.81445313 84.81445313V412.125c0 15.55664063-12.56835938 28.125-28.125 28.125zM492.13671875 195.38671875c0.3515625-0.3515625 0.703125-0.61523438 1.0546875-0.96679688l0.3515625-0.3515625c0.17578125-0.17578125 0.43945313-0.3515625 0.61523438-0.52734375 0.17578125-0.17578125 0.3515625-0.26367188 0.52734375-0.3515625 0.17578125-0.17578125 0.43945313-0.3515625 0.61523437-0.43945312 0.17578125-0.08789063 0.3515625-0.26367188 0.52734375-0.3515625 0.17578125-0.17578125 0.43945313-0.26367188 0.61523438-0.43945313 0.17578125-0.08789063 0.3515625-0.17578125 0.52734375-0.3515625 0.26367188-0.17578125 0.43945313-0.26367188 0.703125-0.43945312 0.17578125-0.08789063 0.26367188-0.17578125 0.43945312-0.26367188 0.26367188-0.17578125 0.52734375-0.26367188 0.79101563-0.43945312 0.08789063-0.08789063 0.26367188-0.08789063 0.3515625-0.17578125 0.26367188-0.17578125 0.61523438-0.26367188 0.87890625-0.43945313 0.08789063-0.08789063 0.17578125-0.08789063 0.26367187-0.17578125 0.3515625-0.17578125 0.61523438-0.26367188 0.96679688-0.43945312 0.08789063 0 0.17578125-0.08789063 0.17578125-0.08789063 0.3515625-0.17578125 0.703125-0.26367188 1.0546875-0.43945312 0.08789063 0 0.08789063 0 0.17578125-0.08789063 0.3515625-0.17578125 0.79101563-0.26367188 1.14257812-0.3515625h0.08789063c0.43945313-0.08789063 0.79101563-0.26367188 1.23046875-0.3515625h0.08789062c0.43945313-0.08789063 0.79101563-0.17578125 1.23046875-0.26367187h0.17578125c0.3515625-0.08789063 0.79101563-0.17578125 1.14257813-0.17578125h0.3515625c0.3515625-0.08789063 0.703125-0.08789063 1.0546875-0.08789063 0.26367188 0 0.43945313 0 0.703125-0.08789062 0.26367188 0 0.43945313 0 0.703125-0.08789063h1.49414062c0.61523438 0 1.14257813 0 1.66992188 0.08789063h0.52734375c0.52734375 0 1.0546875 0.08789063 1.58203125 0.17578125h0.26367187c0.61523438 0.08789063 1.23046875 0.17578125 1.84570313 0.3515625 0.08789063 0 0.17578125 0 0.26367187 0.08789062 0.61523438 0.17578125 1.14257813 0.26367188 1.7578125 0.43945313h0.08789063c0.61523438 0.17578125 1.23046875 0.43945313 1.84570312 0.61523438h0.08789063l1.84570312 0.79101562h0.08789063c0.61523438 0.26367188 1.23046875 0.61523438 1.7578125 0.96679688 0.08789063 0 0.08789063 0.08789063 0.17578125 0.08789062 1.40625 0.79101563 2.8125 1.7578125 4.04296874 2.8125 0.17578125 0.17578125 0.3515625 0.3515625 0.52734375 0.43945313 0.17578125 0.17578125 0.3515625 0.26367188 0.52734375 0.43945312 0.17578125 0.17578125 0.43945313 0.3515625 0.61523438 0.61523438l0.3515625 0.3515625c0.08789063 0.08789063 0.17578125 0.08789063 0.17578125 0.17578125l168.48632813 168.48632812c10.98632813 10.98632813 10.98632813 28.828125-1e-8 39.81445313s-28.828125 10.98632813-39.81445312 0L540.125 283.18945312000005V749.625c0 15.55664063-12.56835938 28.125-28.125 28.125s-28.125-12.56835938-28.125-28.125v-466.43554688L363.11328125 403.86328125c-10.98632813 10.98632813-28.828125 10.98632813-39.81445313 0s-10.98632813-28.828125 0-39.81445313l168.83789063-168.66210937z"  horiz-adv-x="1024" />

    
    <glyph glyph-name="more" unicode="&#58885;" d="M509.65333333 120.63999999999999c48.53333333-0.10666667 87.68-39.25333333 87.57333334-87.89333333-0.10666667-48.42666667-39.46666667-87.78666667-88-87.68-48.32 0-87.68 39.57333332-87.57333334 88.10666666 0.10666667 48.42666667 39.36 87.46666667 88 87.46666667z m-87.89333333 615.46666667c0 48.53333333 39.25333333 88 87.68 87.99999999 48.42666667 0.10666667 87.89333333-39.25333333 87.89333333-87.78666667 0-48.64-39.04-87.89333333-87.68-87.89333333s-87.89333333 39.04-87.89333333 87.68000001zM597.33333333 384.42666667c0-48.42666667-39.78666667-88.10666667-87.89333333-87.89333334-48.53333333 0.32-87.68 39.57333332-87.68 88.10666667 0 48.42666667 39.57333332 88 87.89333333 87.78666667 48.42666667-0.10666667 87.68-39.46666667 87.68-88z"  horiz-adv-x="1024" />

    
    <glyph glyph-name="checkbox" unicode="&#58886;" d="M315.31751823 509.19367219l-63.06804657-63.09044839 202.80512809-202.8051281 450.67728997 450.67728997-63.06804656 63.09122085-387.60924341-387.58761406-139.73708152 139.71467972zM817.86581231 78.30722236999998h-611.38401032V689.69200516h436.70396805V777.03357124h-436.70396805C158.41756058 777.03357124 119.13946343 737.73461723 119.13946343 689.69200516V78.30799483999999c0-48.04183961 39.27732468-87.34079361 87.3407936-87.34079361h611.3847828c48.06269646 0 87.34079361 39.29895401 87.3407936 87.34079361V427.67116928H817.86581231v-349.36394691z"  horiz-adv-x="1024" />

    
    <glyph glyph-name="list" unicode="&#58932;" d="M696.21823497-66c-49.43244199 0-92.60344161 18.45477862-115.34236525 54.70523614-42.18235049 67.22812177 0 170.04760137 94.25118956 229.3665328s205.30941065 53.05748818 247.491762-14.17063358c21.4207251-33.94361075 22.40937422-76.78506006 2.9659465-121.27425909-18.1252292-41.85280107-52.72793877-80.08055683-97.21713692-108.09227374-43.17099961-27.35261807-89.96704541-40.53460254-132.1493959-40.53460253z m112.04686933 283.74221865c-34.60270957 0-74.47821328-11.53423652-111.05822022-34.60270957-73.81911357-46.4664955-111.05822021-125.55840322-81.39875537-172.68399843s117.31966348-47.78469404 191.13877705-1.31819854c37.56865606 23.72757276 66.56902208 55.69388526 81.39875537 89.63749599 13.84108418 31.63676309 13.84108418 60.96667852 0 83.04650245-15.15928271 24.05712217-44.81874756 35.9209081-80.08055683 35.9209081zM920.31197363 121.84328115000005a20.53094062 20.53094062 0 0 0-20.43207597 20.43207598V686.36177198a20.43207597 20.43207597 0 1 0 40.86415195-1e-8v-544.08641484a20.53094062 20.53094062 0 0 0-20.43207597-20.43207598zM105.99487403 788.52215273A22.73892363 22.73892363 0 1 0 105.99487403 834h730.28194804a22.73892363 22.73892363 0 1 0 0-45.47784727zM106.98352227 546.9622845700001a22.73892363 22.73892363 0 1 0 0 45.47784726h593.84840713a22.73892363 22.73892363 0 1 0 0-45.47784726zM106.98352227 305.40241641a22.73892363 22.73892363 0 0 0 0 45.47784726H514.96594648a22.73892363 22.73892363 0 0 0 0-45.47784726zM106.98352227 63.84254824000004a22.73892363 22.73892363 0 0 0 0 45.47784727h273.85573096a22.73892363 22.73892363 0 0 0 0-45.47784726z"  horiz-adv-x="1024" />

    
    <glyph glyph-name="list1" unicode="&#58935;" d="M195.59375 665.24999973c-18.70312527 0-35.15625027 15.75000027-35.15625027 35.15625027s16.453125 35.15625027 35.15625027 35.15625027h667.96875027c18.70312527 0 35.15625027-15.75000027 35.15624946-35.15625027s-16.453125-35.15625027-35.15624946-35.15625027H195.59375z m0-316.40625c-18.70312527 0-35.15625027 15.75000027-35.15625027 35.15625027s16.453125 35.15625027 35.15625027 35.15625027h667.96875027c18.70312527 0 35.15625027-15.75000027 35.15624946-35.15625027s-16.453125-35.15625027-35.15624946-35.15625027H195.59375z m0-351.56249946c-18.70312527 0-35.15625027 15.75000027-35.15625027 35.15624946s16.453125 35.15625027 35.15625027 35.15625027h667.96875027c18.70312527 0 35.15625027-15.75000027 35.15624946-35.15625027s-16.453125-35.15625027-35.15624946-35.15624946H195.59375z"  horiz-adv-x="1024" />

    
    <glyph glyph-name="mini_play" unicode="&#59129;" d="M235.17993622-105.39579284000001c5.55034675 0 11.10069353 1.53841133 15.98741187 4.58506906l723.95827345 452.47392091a30.16492806 30.16492806 0 0 1 0 51.15971798l-723.95827345 452.47392089a30.16492806 30.16492806 0 1 1-46.15233991-25.61002391v-904.9478418a30.22525793 30.22525793 0 0 1 30.16492804-30.13476313z m30.16492807 880.69523963L902.21699039 377.24305612 265.34486429-20.783169639999983V775.29944679z"  horiz-adv-x="1024" />

    
    <glyph glyph-name="mini_pause" unicode="&#59075;" d="M173.23371855 796.41112627c0 23.56635051 20.62055582 44.18690634 44.18690632 44.18690635s44.18690634-20.62055582 44.18690634-44.18690635v-824.82225254c0-23.56635051-20.62055582-44.18690634-44.18690634-44.18690635s-44.18690634 20.62055582-44.18690632 44.18690635V796.41112627z m589.15875024 0c0 23.56635051 20.62055582 44.18690634 44.18690634 44.18690635s44.18690634-20.62055582 44.18690632-44.18690635v-824.82225254c0-23.56635051-20.62055582-44.18690634-44.18690632-44.18690635s-44.18690634 20.62055582-44.18690634 44.18690635V796.41112627z"  horiz-adv-x="1024" />

    
    <glyph glyph-name="player-pause" unicode="&#58880;" d="M512 853.332992C254.733312 853.332992 42.665984 641.263616 42.665984 384s212.067328-469.331968 469.331968-469.331968c257.26464 0 469.334016 212.067328 469.334016 469.331968 0 257.26464-212.069376 469.334016-469.334016 469.334016M512-128C228.692992-128 0 100.692992 0 384 0 667.307008 228.692992 896 512 896c283.307008 0 512-228.692992 512-512 0-283.307008-228.692992-512-512-512M384 554.667008h85.332992v-341.332992H384zM554.667008 554.667008H640v-341.332992h-85.332992z"  horiz-adv-x="1024" />

    
    <glyph glyph-name="nav_mine" unicode="&#59058;" d="M906.198 755.237l-0.01 1.901h-0.25c-1.072 6.255-4.205 12.096-8.892 16.426-5.149 4.76-11.693 7.448-18.612 7.694l-0.332 2.418-476.09-68.151a5.689 5.689 0 0 1-1.299-0.196l-8.12-1.117 0.37-0.834c-9.466-3.555-16.491-11.955-18.246-21.966h-0.45v-4.545a5.848 5.848 0 0 1-0.144-1.276c0-0.467 0.06-0.879 0.144-1.233V198.13c-28.198 17.493-63.706 27.043-101.084 27.043-89.074 0-158.848-53.034-158.848-120.735 0-67.717 69.775-120.762 158.848-120.762h0.024c89.072 0 158.845 53.045 158.845 120.762V489.352l416.398 59.653v-285.143c-28.198 17.492-63.697 27.042-101.059 27.042-89.074 0-158.849-53.033-158.849-120.735 0-67.705 69.775-120.74 158.849-120.74 89.061 0 158.825 53.036 158.825 120.74V751.952c0.073 0.373 0.143 0.892 0.111 1.498a29.57 29.57 0 0 1-0.129 1.787z m-57.75-585.069c0-16.087-10.365-31.59-29.186-43.654-19.21-12.313-45.407-19.375-71.872-19.375-26.468 0-52.669 7.062-71.886 19.375-18.829 12.064-29.198 27.568-29.198 43.654 0 16.084 10.369 31.586 29.198 43.649 19.217 12.313 45.418 19.375 71.886 19.375 26.466 0 52.663-7.062 71.872-19.374 18.821-12.063 29.186-27.565 29.186-43.65z m0 550.996v-113.871L432.05 547.64V661.51l416.398 59.654zM374.289 104.43799999999999c0-16.086-10.37-31.593-29.199-43.664-19.219-12.321-45.42-19.388-71.884-19.388-26.466 0-52.669 7.066-71.888 19.388-18.829 12.071-29.199 27.579-29.199 43.664s10.369 31.586 29.198 43.65c19.217 12.313 45.42 19.375 71.889 19.375 26.467 0 52.669-7.062 71.885-19.375 18.829-12.063 29.198-27.566 29.198-43.65z"  horiz-adv-x="1024" />

    
    <glyph glyph-name="Menus" unicode="&#59072;" d="M128 725.333333h768v-85.333333H128V725.333333z m0-298.666666h768v-85.333334H128v85.333334z m0-298.666667h768v-85.333333H128v85.333333z"  horiz-adv-x="1024" />

    
    <glyph glyph-name="nav-video" unicode="&#58881;" d="M185.99082031 37.27499999999998h652.01835938c78.73330078 0 118.28583984 39.16582031 118.28583984 116.75917969V613.98251953c0 77.59248047-39.55253906 116.75830078-118.28583984 116.75830078H185.99082031c-78.34833984-0.01582031-118.28583984-38.8125-118.28583984-116.75830078V154.01660156000003c0-77.9625 39.9375-116.75830078 118.28583984-116.75830078z m1.125 60.6375c-37.67080078 0-58.75664062 19.95996094-58.75664062 59.14248047V610.92832031c0 39.18164063 21.08496094 59.14335938 58.75664062 59.14335938h649.76835938c37.28583984 0 58.75664062-19.96083984 58.75664062-59.14335938v-453.85664062c0-39.18164063-21.47167969-59.14335938-58.75664062-59.14335938z m212.0625 163.10917969c0-17.325 19.22167969-24.8625 35.79169922-15.075L636.48828125 364.97167969c14.68916016 9.04833984 14.30332031 29.76416016 0 38.05664062L434.97001953 522.8091796900001c-15.44501953 9.03164062-35.79169922 1.88085938-35.79169922-15.075z"  horiz-adv-x="1024" />

    
    <glyph glyph-name="nav_home" unicode="&#58882;" d="M444.63 410.667c-12.545-43.862 0.511-88.064 33.45-113.195 45.27-34.56 109.44-12.8 122.624 42.453 3.413 14.379 4.395 30.806 1.152 45.056-9.813 42.71-22.187 84.822-33.792 127.83-56.747-6.571-108.501-50.006-123.435-102.144z m236.714 12.245c11.648-43.179 12.16-86.059-5.419-128-48.128-114.773-201.429-133.973-280.448-35.243-55.552 69.419-54.613 169.003 2.56 244.651 33.28 44.032 76.971 72.832 130.048 87.637l16.171 4.438c-3.584 17.706-8.021 34.816-10.368 52.224-7.51 56.192 21.845 106.794 74.41 129.706 52.31 22.827 115.542 9.216 150.614-32.426 17.323-20.438 16.853-46.08-1.067-62.464-17.578-16.086-42.496-14.763-61.226 3.84-10.539 10.496-21.76 18.773-37.419 18.602-22.4-0.256-42.112-17.834-40.32-39.978 1.579-19.968 7.381-39.68 12.8-59.136 0.939-3.328 9.216-5.76 14.421-6.528 56.918-8.406 106.838-31.19 148.139-71.51 109.141-106.368 122.07-278.656 28.672-402.773-65.237-86.699-154.027-135.168-261.419-145.45-197.162-18.774-369.664 107.946-413.866 301.14-40.32 176.811 58.88 365.569 227.626 433.025 25.003 9.984 48.768 1.322 58.496-21.248 9.899-22.912-0.81-46.336-26.026-57.6-101.035-45.227-162.859-121.814-179.84-231.424-22.742-146.475 70.656-289.11 213.333-329.387 116.181-32.853 241.408 7.083 311.808 99.413 67.67 88.747 59.733 217.558-18.219 293.248a169.77 169.77 0 0 1-77.781 43.222c8.448-30.55 16.597-59.222 24.32-87.979z"  horiz-adv-x="1024" />

    
    <glyph glyph-name="search_1" unicode="&#58948;" d="M980.8-70.39999999999998L760 150.39999999999998c73.6 75.2 120 179.2 120 294.4C880 675.2 691.2 864 459.2 864 228.8 864 40 675.2 40 443.2c0-232 188.8-420.8 420.8-420.8 104 0 198.4 38.4 272 100.8l222.4-222.4L980.8-70.39999999999998zM76.8 443.2c0 211.2 171.2 382.4 382.4 382.4 211.2 0 382.4-171.2 382.4-382.4 0-211.2-171.2-382.4-382.4-382.4C248 60.799999999999955 76.8 233.60000000000002 76.8 443.2z"  horiz-adv-x="1024" />

    
    <glyph glyph-name="music_radio" unicode="&#58908;" d="M320 16c123.52 0 224 100.48 224 224s-100.48 224-224 224S96 363.52 96 240s100.48-224 224-224zM153.984 144H224v-70.016A193.024 193.024 0 0 0 153.984 144zM256 59.200000000000045V144h128v-84.8c-20.048-7.12-41.536-11.2-64-11.2s-43.952 4.08-64 11.2z m0 116.8v128h128v-128h-128z m160-102.016V144h70.016A193.024 193.024 0 0 0 416 73.98400000000004zM500.8 176H416v128h84.8c7.12-20.048 11.2-41.536 11.2-64s-4.08-43.952-11.2-64z m-14.784 160H416v70.016A193.024 193.024 0 0 0 486.016 336zM384 420.8V336h-128v84.8c20.048 7.12 41.536 11.2 64 11.2s43.952-4.08 64-11.2z m-160-14.784V336H153.984A193.024 193.024 0 0 0 224 406.016zM139.2 304H224v-128H139.2c-7.12 20.048-11.2 41.536-11.2 64s4.08 43.952 11.2 64zM784 464h-112v-96h112v96z m-32-64h-48v32h48v-32zM928 464h-112v-96h112v96z m-32-64h-48v32h48v-32zM832 208c-52.944 0-96-43.056-96-96s43.056-96 96-96 96 43.056 96 96-43.056 96-96 96z m0-160c-35.296 0-64 28.704-64 64 0 29.728 20.464 54.576 48 61.728V128h32v45.728c27.536-7.152 48-32 48-61.728 0-35.296-28.704-64-64-64zM160 624H112v3.568L851.952 816.496l-7.904 31.008L80 652.432V624H32v-64H0v-640h1024V560H160v64z m-96-32h64v-32H64v32z m928-640H32V528h960v-576z"  horiz-adv-x="1024" />

    
    <glyph glyph-name="next" unicode="&#60011;" d="M138.666667-42.713333000000034a53.58 53.58 0 0 0-53.333334 53.433333V757.28a53.333333 53.333333 0 0 0 80.886667 45.666667l618.666667-373.28a53.333333 53.333333 0 0 0 0-91.333334l-618.666667-373.28a53.16 53.16 0 0 0-27.553333-7.766666z m0.046666 810.666666a10.98 10.98 0 0 1-5.333333-1.42 10.466667 10.466667 0 0 1-5.38-9.253333v-746.56a10.666667 10.666667 0 0 1 16.18-9.133333l618.666667 373.28a10.666667 10.666667 0 0 1 0 18.266666l-618.666667 373.28a10.386667 10.386667 0 0 1-5.446667 1.586667zM938.666667-21.33333300000004V789.333333a21.333333 21.333333 0 0 1-42.666667 0v-810.666666a21.333333 21.333333 0 0 1 42.666667 0z"  horiz-adv-x="1024" />

    
    <glyph glyph-name="horn" unicode="&#60310;" d="M679.32885078 244.79508135000003c35.6257459 35.6257459 57.66080625 84.84217734 57.66080625 139.20491865s-22.03506035 103.57917364-57.66080625 139.20491865c-10.98335303 10.98245391-10.98335303 28.78948037 0 39.77283428 10.98245391 10.98335303 28.78948037 10.98335303 39.77283428 0 45.80414472-45.80414472 74.13493623-109.0825418 74.13493622-178.97775293s-28.33079151-133.1736082-74.13493622-178.97775292c-10.98245391-10.98335303-28.78948037-10.98335303-39.77283428 0-10.98335303 10.98335303-10.98335303 28.79038037 0 39.77283427z m99.43118614-99.43208526C839.83222988 206.43518905999997 877.60661855 290.80608544999996 877.60661855 384s-37.77438867 177.56481094-98.84658164 238.63700391c-10.98245391 10.98335303-10.98245391 28.78948037 0 39.77283427 10.98335303 10.98335303 28.78948037 10.98335303 39.7728334 0C889.78436211 591.15834638 933.85448281 492.72548437 933.85448281 384s-44.0701207-207.15834638-115.3207125-278.40983818c-10.98335303-10.98335303-28.79038037-10.98335303-39.77373339 0-10.98245391 10.98335303-10.98245391 28.79038037 0 39.77283427zM336.43363379 524.61876065H160.45444795c-7.76623448 0-14.06196563-6.29573115-14.06196563-14.06196651v-253.11268916c0-7.76623448 6.29573115-14.06196563 14.06196563-14.0619665H336.43453378c22.37682833 0 43.83627891-8.88867334 59.65925099-24.71164541l144.03014736-144.03014737V693.36055342L396.09288477 549.33040606a84.36819815 84.36819815 0 0 0-59.65925098-24.71164541z m36.36144756 80.95860966L500.35109786 733.1333877c35.43417597 35.43417597 96.01979854 10.33849073 96.01979852-39.77283428v-618.72020772c0-50.11132412-60.58652256-75.20700937-96.01979853-39.77283427L372.79508135 162.42262969a84.36999727 84.36999727 0 0 1-59.65925186 24.71164541H146.39248232c-31.06493789 0-56.24696426 25.18292637-56.24696513 56.24696425V524.61876065c0 31.06493789 25.18292637 56.24696426 56.24696513 56.24696425h166.74334717a84.37179551 84.37179551 0 0 1 59.65925186 24.71164541z"  horiz-adv-x="1024" />

    
    <glyph glyph-name="Search" unicode="&#58961;" d="M982.44152938-45.05717905999995l-252.71459157 222.87111093a405.36399281 405.36399281 0 1 1-44.46678562-39.93057656l254.98269562-225.13921594a29.84348062 29.84348062 0 0 1 42.19868157 42.19868157zM95.88126031 456.104385A343.20002344 343.20002344 0 1 0 439.08128375 112.90436155999998 343.58798812 343.58798812 0 0 0 95.88126031 456.104385z"  horiz-adv-x="1027" />

    
    <glyph glyph-name="headphones" unicode="&#59087;" d="M960 268.27v-149.33c0-61.86-50.14-112-112-112s-112 50.14-112 112V268.27c0 41.24 33.43 74.67 74.67 74.67h6.72v16.8c0 168.35-136.48 304.83-304.83 304.83S207.73 528.0899999999999 207.73 359.74v-18.67h5.6c41.24 0 74.67-33.43 74.67-74.67v-149.33c0-61.86-50.14-112-112-112s-112 50.14-112 112V266.4c-0.04 29.87 17.73 56.89 45.17 68.69V361.6c1.01 220.36 178.74 399.09 399.09 401.33h5.23c220.99-2.45 398.9-182.2 399.09-403.2v-25.02c27.59-10.78 46.19-36.85 47.42-66.44z"  horiz-adv-x="1024" />

    
    <glyph glyph-name="player-play" unicode="&#58913;" d="M671.21 418.23l-220.89 124.38a50.01 50.01 0 0 1-23.79 6.39c-19.38 0-34.53-13.02-34.53-30.18v-269.67c0-17.07 15.15-30.15 34.53-30.15 7.5 0 15.63 1.92 23.79 6.39l220.89 124.38c12.66 8.07 20.79 22.56 20.79 34.95s-8.13 25.44-20.79 33.51zM512 864C246.92 864 32 649.08 32 384c0-265.11 214.92-480 480-480 265.11 0 480 214.89 480 480S777.11 864 512 864z m0-930C263.87-66 62 135.87 62 384S263.87 834 512 834s450-201.87 450-450-201.87-450-450-450z"  horiz-adv-x="1024" />

    
    <glyph glyph-name="playing-sequence" unicode="&#59516;" d="M657.408 155.64800000000002h-399.36l38.4-33.28c7.68-4.608 12.8-11.776 12.8-21.504-2.56-14.336-15.36-23.552-30.72-23.552-7.68 0-17.92 4.608-23.04 9.728l-87.04 71.168c-10.24 9.728-12.8 26.112 0 35.84l87.04 73.728c5.12 4.608 15.36 7.168 23.04 7.168 15.36 0 28.16-11.776 28.16-26.112 0-7.168-5.12-14.336-10.24-18.944l-33.28-28.672h396.8c89.6 0 158.72 66.56 158.72 147.456V412.672c0 14.336 10.24 23.552 25.6 23.552s25.6-9.728 25.6-23.552V348.15999999999997c0-104.448-94.72-192.512-212.48-192.512z m-291.84 508.928h396.8l-38.4 33.28c-7.68 4.608-12.8 11.776-12.8 21.504 2.56 14.336 15.36 23.552 30.72 23.552 7.68 0 17.92-4.608 23.04-9.728l87.04-71.168c10.24-9.728 12.8-26.112 0-35.84L767.488 552.96c-5.12-4.608-15.36-7.168-23.04-7.168-15.36 0-28.16 11.776-28.16 26.112 0 7.168 5.12 14.336 10.24 18.944l33.28 28.672H363.008c-87.04-2.56-158.72-69.12-158.72-152.064v-66.56c0-14.336-10.24-23.552-25.6-23.552s-25.6 9.728-25.6 23.552V464.896c0 111.616 94.72 199.68 212.48 199.68z"  horiz-adv-x="1024" />

    
    <glyph glyph-name="playing-random" unicode="&#59517;" d="M183.296 197.63199999999995c-16.896 0-30.72 14.336-30.72 31.744 0 17.408 13.824 31.744 30.72 31.744h78.848c41.472 0 90.112 56.32 139.776 122.88l8.704-12.288 29.184-39.936c-56.32-73.728-113.664-134.656-177.664-134.656 0.512 0.512-78.848 0.512-78.848 0.512z m679.936 379.904l-50.176-52.224-50.176-52.224c-7.168-7.168-18.432-7.168-26.112 0-4.096 4.096-5.632 9.728-5.12 14.848v71.68h-74.752c-41.472 0-89.6-56.32-139.776-122.88l-8.704 12.288-29.184 39.936c56.832 73.728 114.176 134.656 178.176 134.656H732.16V695.808c0 10.24 8.192 18.944 18.432 18.944 5.12 0 9.728-2.56 12.8-5.632l50.176-52.736 50.176-52.224c6.144-7.168 6.144-19.456-0.512-26.624z m-38.912 13.312c-18.944 19.456-37.888 39.424-56.832 58.88v-117.76c18.944 19.456 37.888 38.912 56.832 58.88z m38.912-374.784c7.168 7.68 7.168 19.456 0 26.624l-50.176 52.224-50.176 52.224c-3.072 3.584-8.192 5.632-12.8 5.632-9.728 0-18.432-8.704-18.432-18.944V261.12h-74.752c-50.688 0-111.616 83.968-173.056 167.936-70.656 96.768-140.288 193.536-221.184 193.536H183.296c-16.896 0-30.72-14.336-30.72-31.744 0-17.408 13.824-31.744 30.72-31.744h78.848c50.688 0 112.128-83.968 173.056-167.936 70.144-96.768 140.8-193.024 221.184-193.024h74.752v-71.68c-0.512-5.632 1.536-10.752 5.12-14.848 7.168-7.68 18.944-7.68 26.112 0l50.176 52.736 50.688 51.712z m-38.912 13.312c-18.944-19.456-37.888-38.912-56.832-58.88v118.272l19.456-20.48 37.376-38.912z"  horiz-adv-x="1024" />

    
    <glyph glyph-name="prev" unicode="&#60311;" d="M885.333333 810.713333a53.58 53.58 0 0 0 53.333334-53.433333L938.666667 10.720000000000027a53.333333 53.333333 0 0 0-80.886667-45.666667l-618.666667 373.28a53.333333 53.333333 0 0 0 0 91.333334l618.666667 373.28a53.16 53.16 0 0 0 27.553333 7.766666z m-0.046666-810.666666a10.98 10.98 0 0 1 5.333333 1.42 10.466667 10.466667 0 0 1 5.38 9.25333299l0 746.56000002a10.666667 10.666667 0 0 1-16.17999999 9.13333299l-618.666667-373.28a10.666667 10.666667 0 0 1 0-18.266666l618.666667-373.28a10.386667 10.386667 0 0 1 5.44666699-1.586667zM85.333333 789.333333L85.333333-21.33333300000004a21.333333 21.333333 0 0 1 42.666667 0l0 810.666666a21.333333 21.333333 0 0 1-42.666667 0z"  horiz-adv-x="1024" />

    


  </font>
</defs>
</svg>
