<?xml version="1.0" standalone="no"?><!DOCTYPE svg PUBLIC "-//W3C//DTD SVG 1.1//EN" "http://www.w3.org/Graphics/SVG/1.1/DTD/svg11.dtd"><svg t="1593071923559" class="icon" viewBox="0 0 1024 1024" version="1.1" xmlns="http://www.w3.org/2000/svg" p-id="22571" xmlns:xlink="http://www.w3.org/1999/xlink" width="200" height="200"><defs><style type="text/css"></style></defs><path d="M836.388571 188.708571a73.142857 73.142857 0 0 1 0.585143 9.069715v488.118857h-0.109714l-0.073143 3.876571a128 128 0 1 1-72.96-122.697143l-0.036571-177.92-438.857143 61.659429 0.036571 314.697143a128 128 0 1 1-73.142857-109.897143V261.302857A73.142857 73.142857 0 0 1 315.904 188.708571l438.857143-63.488A73.142857 73.142857 0 0 1 836.388571 188.708571zM197.12 716.507429a54.857143 54.857143 0 1 0 54.710857 58.660571l-0.036571-7.606857-0.073143-1.462857a54.857143 54.857143 0 0 0-54.601143-49.590857z m511.853714-88.612572a54.857143 54.857143 0 1 0 0 109.714286 54.857143 54.857143 0 0 0 0-109.714286z m54.857143-430.08l-438.857143 63.488-0.036571 115.675429 438.857143-61.696V197.778286z" fill="#dbdbdb" p-id="22572"></path></svg>