<?xml version="1.0" standalone="no"?><!DOCTYPE svg PUBLIC "-//W3C//DTD SVG 1.1//EN" "http://www.w3.org/Graphics/SVG/1.1/DTD/svg11.dtd"><svg t="1593080172772" class="icon" viewBox="0 0 1024 1024" version="1.1" xmlns="http://www.w3.org/2000/svg" p-id="46122" xmlns:xlink="http://www.w3.org/1999/xlink" width="200" height="200"><defs><style type="text/css"></style></defs><path d="M861.048144 812.501286H162.951856c-33.493569 0-59.836825-26.343256-59.836825-59.836824V333.806689c0-33.493569 26.343256-59.836825 59.836825-59.836825h698.47262c33.493569 0 59.836825 26.343256 59.836825 59.836825V752.664462c0 33.493569-26.343256 59.836825-60.213157 59.836824zM162.951856 289.023153c-25.590592 0-44.783535 19.192944-44.783536 44.783536V752.664462c0 25.590592 19.192944 44.783535 44.783536 44.783535h698.47262c25.590592 0 44.783535-19.192944 44.783536-44.783535V333.806689c0-25.590592-19.192944-44.783535-44.783536-44.783536H162.951856z" fill="#ffffff" p-id="46123"></path><path d="M291.281147 289.023153c-1.881661 0-4.139655-0.376332-6.021316-1.505329-2.634326-1.505329-4.515987-4.139655-5.644984-7.150312s-0.376332-6.021316 1.128997-9.031974c1.505329-2.634326 4.139655-4.515987 7.150313-5.644983L845.618523 116.662992c3.010658-0.752664 6.021316-0.376332 9.031973 1.128996 2.634326 1.505329 4.515987 4.139655 5.644984 7.150313s0.376332 6.021316-1.128997 9.031973c-1.505329 2.634326-4.139655 4.515987-7.150312 5.644984L294.291804 288.646821c-1.128997 0.376332-1.881661 0.376332-3.010657 0.376332zM849.005513 124.189636h-1.128997L290.15215 273.2172c-1.128997 0.376332-1.881661 1.128997-2.634326 1.881661-0.376332 1.128997-0.752664 2.257993-0.376332 3.010658 0.376332 1.128997 1.128997 1.881661 1.881661 2.634325 1.128997 0.376332 2.257993 0.752664 3.010658 0.376332l557.724366-149.027563c2.257993-0.752664 3.38699-3.010658 3.010658-5.268651-0.376332-1.128997-1.128997-1.881661-1.881661-2.634326h-1.881661zM677.774348 714.654906h-8.655642c-89.567071-3.763322-159.564866-80.91143-155.801543-171.983829 3.763322-45.912532 22.956266-85.051084 54.944506-113.652334 32.740904-28.977582 74.890114-44.030871 118.920984-42.14921 43.654539 1.881661 83.922087 21.074605 113.652334 53.815509 29.730246 32.740904 44.783535 74.890114 41.772878 118.168321-3.763322 45.5362-22.956266 85.051084-54.944506 113.276001-28.60125 27.472253-68.492466 42.525542-109.889011 42.525542z m1.881661-312.355751c-37.633223 0-73.384785 13.54796-101.609702 38.385887-28.977582 25.966924-46.288864 61.718486-50.052187 103.115032-3.38699 82.416759 60.213157 152.790886 141.124586 155.801543h8.279309c37.633223 0 73.761117-13.924293 99.728042-38.009555 29.353914-25.966924 46.665197-61.718486 50.052186-103.491364 2.257993-39.138552-11.289967-77.148107-38.009555-106.878353-27.095921-30.106578-63.600147-47.417861-103.115031-48.92319h-6.397648zM426.384417 576.91731H206.606395c-14.676957 0-24.837927-10.16097-24.837928-24.837927s10.16097-24.837927 24.837928-24.837928h220.154355c14.676957 0 24.837927 10.16097 24.837927 24.837928s-10.537302 24.837927-25.21426 24.837927zM206.606395 541.918412c-6.397648 0-9.784638 3.763322-9.784638 9.784638 0 6.397648 3.763322 9.784638 9.784638 9.784638h220.154355c6.397648 0 9.784638-3.763322 9.784638-9.784638 0-6.397648-3.763322-9.784638-9.784638-9.784638H206.606395zM426.384417 681.53767H206.606395c-14.676957 0-24.837927-10.16097-24.837928-24.837927s10.16097-24.837927 24.837928-24.837927h220.154355c14.676957 0 24.837927 10.16097 24.837927 24.837927s-10.537302 24.837927-25.21426 24.837927z m-219.778022-34.622565c-6.397648 0-9.784638 3.763322-9.784638 9.784638s3.763322 9.784638 9.784638 9.784638h220.154355c6.397648 0 9.784638-3.763322 9.784638-9.784638s-3.763322-9.784638-9.784638-9.784638H206.606395zM426.384417 472.29695H206.606395c-14.676957 0-24.837927-10.16097-24.837928-24.837928 0-14.676957 10.16097-24.837927 24.837928-24.837927h220.154355c14.676957 0 24.837927 10.16097 24.837927 24.837927 0 14.300625-10.537302 24.837927-25.21426 24.837928z m-219.778022-34.998898c-6.397648 0-9.784638 3.763322-9.784638 9.784638 0 6.397648 3.763322 9.784638 9.784638 9.784638h220.154355c6.397648 0 9.784638-3.763322 9.784638-9.784638 0-6.397648-3.763322-9.784638-9.784638-9.784638H206.606395zM836.962881 397.030503c-18.440279 0-33.869901-15.053289-33.8699-33.8699s15.053289-33.869901 33.8699-33.869901c18.440279 0 33.869901 15.053289 33.869901 33.869901s-15.429621 33.869901-33.869901 33.8699z m0-52.31018c-10.16097 0-18.816612 8.279309-18.816611 18.816612s8.279309 18.816612 18.816611 18.816611c10.16097 0 18.816612-8.279309 18.816612-18.816611s-8.655641-18.816612-18.816612-18.816612z" fill="#ffffff" p-id="46124"></path></svg>